<?xml version="1.0" encoding="UTF-8"?>
<svg version="1.1" xmlns="http://www.w3.org/2000/svg" width="1080" height="1080">
<path d="M0 0 C356.4 0 712.8 0 1080 0 C1080 356.4 1080 712.8 1080 1080 C723.6 1080 367.2 1080 0 1080 C0 723.6 0 367.2 0 0 Z " fill="#024C89" transform="translate(0,0)"/>
<path d="M0 0 C53.79 0 107.58 0 163 0 C163 257.07 163 514.14 163 779 C109.21 779 55.42 779 0 779 C0 668.78 0 558.56 0 445 C-111.87 445 -223.74 445 -339 445 C-339 555.22 -339 665.44 -339 779 C-392.79 779 -446.58 779 -502 779 C-502 522.26 -502 265.52 -502 1 C-448.21 1 -394.42 1 -339 1 C-339 103.3 -339 205.6 -339 311 C-227.13 311 -115.26 311 0 311 C0 208.37 0 105.74 0 0 Z " fill="#74BBF5" transform="translate(714,149)"/>
</svg>
